<?xml version="1.0" standalone="no"?>
<!DOCTYPE svg PUBLIC "-//W3C//DTD SVG 20010904//EN"
 "http://www.w3.org/TR/2001/REC-SVG-20010904/DTD/svg10.dtd">
<svg version="1.0" xmlns="http://www.w3.org/2000/svg"
 width="512.000000pt" height="512.000000pt" viewBox="0 0 512.000000 512.000000"
 preserveAspectRatio="xMidYMid meet">
<metadata>
Created by potrace 1.11, written by Peter Selinger 2001-2013
</metadata>
<g transform="translate(0.000000,512.000000) scale(0.100000,-0.100000)"
fill="#000000" stroke="none">
<path d="M330 4944 c-103 -28 -215 -115 -273 -214 -59 -102 -57 -43 -57 -1467
l0 -1303 455 0 455 0 0 235 c0 262 7 297 64 338 28 20 47 23 175 27 l143 5 25
63 26 64 -90 91 c-50 51 -96 102 -102 114 -15 30 -14 99 3 131 22 41 467 480
499 492 37 13 93 13 120 -1 12 -6 63 -52 114 -102 l92 -91 63 25 63 25 5 144
c6 163 12 181 79 218 38 21 48 22 371 22 323 0 333 -1 371 -22 67 -37 73 -55
79 -218 l5 -144 64 -24 63 -25 92 91 c50 49 101 95 113 101 27 14 83 14 120 1
32 -12 477 -451 499 -492 17 -32 18 -101 3 -131 -6 -12 -52 -63 -102 -114
l-90 -91 26 -64 25 -63 143 -5 c128 -4 147 -7 175 -27 57 -41 64 -76 64 -338
l0 -235 455 0 455 0 0 1295 c0 920 -3 1309 -11 1347 -6 29 -23 75 -37 103 -32
64 -129 165 -190 198 -111 61 37 57 -2332 56 -1873 0 -2172 -2 -2220 -15z
m3835 -599 c93 -24 145 -54 211 -119 260 -260 117 -696 -249 -759 -187 -32
-387 75 -469 248 -63 136 -61 264 7 401 90 184 301 280 500 229z"/>
<path d="M3994 4040 c-47 -23 -84 -81 -84 -130 0 -73 77 -150 150 -150 72 0
150 78 150 150 0 48 -39 108 -84 129 -53 26 -80 26 -132 1z"/>
<path d="M2408 3337 c-3 -116 -5 -126 -30 -159 -22 -28 -44 -41 -120 -68 -51
-17 -134 -52 -183 -76 -137 -66 -161 -61 -280 57 l-80 79 -108 -108 -107 -107
76 -75 c120 -118 127 -150 59 -284 -25 -49 -56 -126 -70 -171 -44 -145 -75
-165 -245 -165 l-110 0 0 -150 0 -150 311 0 c292 0 311 1 304 18 -3 9 -9 55
-12 102 -8 120 15 228 78 359 44 92 60 114 142 196 80 80 106 99 197 144 223
109 437 109 660 0 91 -45 117 -64 197 -144 82 -82 98 -104 142 -196 63 -131
86 -239 78 -359 -3 -47 -9 -93 -12 -102 -7 -17 12 -18 304 -18 l311 0 0 150 0
150 -110 0 c-174 0 -193 14 -249 177 -21 59 -54 139 -74 177 -60 111 -49 151
67 266 l76 75 -107 107 -108 108 -80 -79 c-119 -118 -142 -123 -279 -57 -50
25 -131 59 -181 76 -141 49 -155 70 -155 240 l0 110 -149 0 -149 0 -4 -123z"/>
<path d="M2440 2544 c-154 -41 -287 -184 -321 -345 -12 -57 -7 -167 10 -211
l11 -28 420 0 420 0 11 28 c17 44 22 154 10 211 -25 117 -111 237 -212 298
-101 60 -233 78 -349 47z"/>
<path d="M2 1533 c6 -153 24 -209 96 -298 54 -68 115 -113 200 -147 l57 -23
2174 -3 c2375 -2 2225 -6 2347 53 66 32 154 120 192 193 38 73 52 140 52 257
l0 95 -2561 0 -2561 0 4 -127z"/>
<path d="M1603 613 l-50 -148 -274 -5 c-244 -4 -277 -7 -301 -23 -31 -21 -68
-91 -68 -128 0 -42 42 -111 80 -131 33 -17 103 -18 1568 -18 1412 0 1537 1
1569 17 95 45 107 193 20 255 -31 22 -41 23 -306 28 l-274 5 -50 148 -49 147
-908 0 -908 0 -49 -147z"/>
</g>
</svg>
